<svg width="17" height="18" viewBox="0 0 17 18" fill="none" xmlns="http://www.w3.org/2000/svg">
<path fill-rule="evenodd" clip-rule="evenodd" d="M2.82543 12.5L3.85793 11.4658C4.18868 11.135 4.37068 10.6958 4.37068 10.2285V6.13613C4.37068 4.94876 4.88693 3.81388 5.78818 3.02463C6.69643 2.22838 7.85318 1.87838 9.05806 2.03676C11.0942 2.30713 12.6298 4.14813 12.6298 6.31988V10.2285C12.6298 10.6958 12.8118 11.135 13.1417 11.4649L14.1751 12.5H2.82543ZM10.2498 14.5484C10.2498 15.335 9.4483 16 8.4998 16C7.5513 16 6.7498 15.335 6.7498 14.5484V14.25H10.2498V14.5484ZM15.9557 11.807L14.3798 10.2285V6.31988C14.3798 3.27401 12.1906 0.686632 9.28731 0.302507C7.60556 0.0785067 5.90806 0.592132 4.63493 1.70863C3.35393 2.83038 2.62068 4.44388 2.62068 6.13613L2.61981 10.2285L1.04393 11.807C0.633555 12.2183 0.51193 12.8299 0.73418 13.3663C0.957305 13.9035 1.47618 14.25 2.05718 14.25H4.99981V14.5484C4.99981 16.3141 6.56956 17.75 8.49981 17.75C10.4301 17.75 11.9998 16.3141 11.9998 14.5484V14.25H14.9424C15.5234 14.25 16.0414 13.9035 16.2637 13.3671C16.4868 12.8299 16.3661 12.2174 15.9557 11.807V11.807Z" fill="#0BAB7C" fill-opacity="0.7"/>
</svg>
