<svg width="20" height="20" viewBox="0 0 20 20" fill="none" xmlns="http://www.w3.org/2000/svg">
<path fill-rule="evenodd" clip-rule="evenodd" d="M4.59562 13.3333L5.57896 12.3483C5.89396 12.0333 6.06729 11.615 6.06729 11.17V7.27248C6.06729 6.14165 6.55896 5.06082 7.41729 4.30915C8.28229 3.55082 9.38396 3.21748 10.5315 3.36832C12.4706 3.62582 13.9331 5.37915 13.9331 7.44748V11.17C13.9331 11.615 14.1065 12.0333 14.4206 12.3475L15.4048 13.3333H4.59562ZM11.6665 15.2841C11.6665 16.0333 10.9031 16.6666 9.99979 16.6666C9.09646 16.6666 8.33312 16.0333 8.33312 15.2841V15H11.6665V15.2841ZM17.1006 12.6733L15.5998 11.17V7.44748C15.5998 4.54665 13.5148 2.08248 10.7498 1.71665C9.14812 1.50332 7.53146 1.99248 6.31896 3.05582C5.09896 4.12415 4.40062 5.66082 4.40062 7.27248L4.39979 11.17L2.89896 12.6733C2.50812 13.065 2.39229 13.6475 2.60396 14.1583C2.81646 14.67 3.31062 15 3.86396 15H6.66646V15.2841C6.66646 16.9658 8.16146 18.3333 9.99979 18.3333C11.8381 18.3333 13.3331 16.9658 13.3331 15.2841V15H16.1356C16.689 15 17.1823 14.67 17.394 14.1591C17.6065 13.6475 17.4915 13.0641 17.1006 12.6733V12.6733Z" fill="#0BAB7C"/>
</svg>