<svg width="20" height="20" viewBox="0 0 20 20" fill="none" xmlns="http://www.w3.org/2000/svg">
<path fill-rule="evenodd" clip-rule="evenodd" d="M16.6665 15C16.6665 15.4592 16.2923 15.8333 15.8332 15.8333H14.1665V7.5H15.8332C16.2923 7.5 16.6665 7.87417 16.6665 8.33333V15ZM3.33317 15V8.33333C3.33317 7.87417 3.70734 7.5 4.1665 7.5H5.83317V15.8333H4.1665C3.70734 15.8333 3.33317 15.4592 3.33317 15V15ZM8.33317 4.58333C8.33317 4.35333 8.51984 4.16667 8.74984 4.16667H11.2498C11.4798 4.16667 11.6665 4.35333 11.6665 4.58333V5.83333H8.33317V4.58333ZM7.49984 15.8333H12.4998V7.5H7.49984V15.8333ZM15.8332 5.83333H13.3332V4.58333C13.3332 3.435 12.3982 2.5 11.2498 2.5H8.74984C7.6015 2.5 6.6665 3.435 6.6665 4.58333V5.83333H4.1665C2.78817 5.83333 1.6665 6.955 1.6665 8.33333V15C1.6665 16.3783 2.78817 17.5 4.1665 17.5H15.8332C17.2115 17.5 18.3332 16.3783 18.3332 15V8.33333C18.3332 6.955 17.2115 5.83333 15.8332 5.83333V5.83333Z" fill="#0BAB7C"/>
</svg>