<svg width="20" height="20" viewBox="0 0 20 20" fill="none" xmlns="http://www.w3.org/2000/svg">
<path fill-rule="evenodd" clip-rule="evenodd" d="M13.5355 5.28595L9.99999 8.82149L6.46446 5.28595C6.1386 4.9601 5.61121 4.96069 5.28594 5.28595C4.96068 5.61122 4.96009 6.13861 5.28594 6.46447L8.82148 10L5.28594 13.5355C4.96068 13.8608 4.96009 14.3882 5.28594 14.714C5.6118 15.0399 6.13919 15.0393 6.46446 14.714L9.99999 11.1785L13.5355 14.714C13.8614 15.0399 14.3888 15.0393 14.714 14.714C15.0393 14.3888 15.0399 13.8614 14.714 13.5355L11.1785 10L14.714 6.46447C15.0393 6.1392 15.0399 5.61181 14.714 5.28595C14.3882 4.9601 13.8608 4.96069 13.5355 5.28595" fill="#0BAB7C"/>
</svg>
