<svg width="45" height="45" viewBox="0 0 45 45" fill="none" xmlns="http://www.w3.org/2000/svg">
<rect width="45" height="45" rx="6" fill="#0BAB7C"/>
<path d="M22.5 22.5C26.8492 22.5 30.375 18.9742 30.375 14.625C30.375 10.2758 26.8492 6.75 22.5 6.75C18.1508 6.75 14.625 10.2758 14.625 14.625C14.625 18.9742 18.1508 22.5 22.5 22.5Z" fill="url(#paint0_linear_3432_6840)"/>
<path fill-rule="evenodd" clip-rule="evenodd" d="M21.873 38.0582C17.0707 34.7837 13.0768 30.321 10.2291 25.0477C10.119 24.8363 10.0951 24.5859 10.1629 24.3551C10.2307 24.1243 10.3843 23.9334 10.5877 23.8273L16.1562 20.9062C16.5457 20.7031 17.0158 20.8572 17.2319 21.2587C20.0473 26.3025 24.2102 30.3304 29.185 32.8241C27.3503 34.8001 25.3185 36.5553 23.1261 38.0582C22.7427 38.3141 22.2564 38.3141 21.873 38.0582Z" fill="white"/>
<path fill-rule="evenodd" clip-rule="evenodd" d="M23.1261 38.0582C27.929 34.7845 31.9231 30.3216 34.77 25.0477C34.8804 24.8369 34.9049 24.5869 34.8379 24.3561C34.7709 24.1254 34.6182 23.9342 34.4155 23.8273L28.8429 20.9062C28.4534 20.7031 27.9833 20.8572 27.7672 21.2587C24.9524 26.303 20.7893 30.3311 15.8141 32.8241C17.6477 34.8014 19.6796 36.5568 21.873 38.0582C22.2564 38.3141 22.7427 38.3141 23.1261 38.0582Z" fill="url(#paint1_linear_3432_6840)"/>
<defs>
<linearGradient id="paint0_linear_3432_6840" x1="22.5" y1="6.75" x2="22.5" y2="22.5" gradientUnits="userSpaceOnUse">
<stop stop-color="white"/>
<stop offset="1" stop-color="#FBFCFF"/>
</linearGradient>
<linearGradient id="paint1_linear_3432_6840" x1="25.3445" y1="20.8169" x2="25.3445" y2="38.2501" gradientUnits="userSpaceOnUse">
<stop stop-color="white"/>
<stop offset="1" stop-color="white" stop-opacity="0.62"/>
</linearGradient>
</defs>
</svg>
