<svg width="20" height="20" viewBox="0 0 20 20" fill="none" xmlns="http://www.w3.org/2000/svg">
<path fill-rule="evenodd" clip-rule="evenodd" d="M6.20062 4.09833C5.78395 4.39333 5.40145 4.735 5.05478 5.12166C2.68062 7.76416 2.75812 11.9925 5.22728 14.5467C6.53228 15.8975 8.28561 16.6508 10.1639 16.6667C10.1848 16.6675 10.2064 16.6675 10.2281 16.6675C12.0823 16.6675 13.8231 15.9483 15.1364 14.6375C15.4098 14.365 15.6581 14.0725 15.8806 13.7608C13.2589 14.0875 10.5714 13.2092 8.66228 11.3042C6.75395 9.39916 5.87062 6.7175 6.20062 4.09833M10.2281 18.3342C10.2014 18.3342 10.1756 18.3342 10.1489 18.3333C7.82062 18.3133 5.64645 17.38 4.02895 15.7058C0.964782 12.535 0.868949 7.2875 3.81395 4.00833C4.73145 2.98583 5.85145 2.21666 7.14228 1.7225C7.44645 1.60416 7.79228 1.6775 8.02478 1.9075C8.25728 2.13666 8.33478 2.48083 8.22228 2.7875C7.29062 5.33333 7.92562 8.21333 9.83978 10.1242C11.7548 12.035 14.6423 12.6692 17.1964 11.7392C17.5031 11.6258 17.8481 11.7058 18.0764 11.9375C18.3048 12.1717 18.3773 12.5167 18.2598 12.8208C17.8231 13.9567 17.1681 14.965 16.3131 15.8175C14.6856 17.4425 12.5273 18.3342 10.2281 18.3342" fill="#0BAB7C"/>
</svg>