<svg width="20" height="20" viewBox="0 0 20 20" fill="none" xmlns="http://www.w3.org/2000/svg">
<path fill-rule="evenodd" clip-rule="evenodd" d="M5.83333 9.99996C5.83333 9.07948 5.08714 8.33329 4.16667 8.33329C3.24619 8.33329 2.5 9.07948 2.5 9.99996C2.5 10.9204 3.24619 11.6666 4.16667 11.6666C5.08714 11.6666 5.83333 10.9204 5.83333 9.99996ZM11.6667 9.99996C11.6667 9.07948 10.9205 8.33329 10 8.33329C9.07952 8.33329 8.33333 9.07948 8.33333 9.99996C8.33333 10.9204 9.07952 11.6666 10 11.6666C10.9205 11.6666 11.6667 10.9204 11.6667 9.99996ZM15.8333 8.33329C16.7538 8.33329 17.5 9.07948 17.5 9.99996C17.5 10.9204 16.7538 11.6666 15.8333 11.6666C14.9129 11.6666 14.1667 10.9204 14.1667 9.99996C14.1667 9.07948 14.9129 8.33329 15.8333 8.33329Z" fill="#92929D"/>
</svg>