<svg width="20" height="20" viewBox="0 0 20 20" fill="none" xmlns="http://www.w3.org/2000/svg">
<path fill-rule="evenodd" clip-rule="evenodd" d="M14.9998 8.33333C14.9998 7.87417 14.6265 7.5 14.1665 7.5C13.7065 7.5 13.3332 7.87417 13.3332 8.33333C13.3332 8.7925 13.7065 9.16667 14.1665 9.16667C14.6265 9.16667 14.9998 8.7925 14.9998 8.33333ZM16.6665 8.33333C16.6665 9.71167 15.5448 10.8333 14.1665 10.8333C12.7882 10.8333 11.6665 9.71167 11.6665 8.33333C11.6665 6.955 12.7882 5.83333 14.1665 5.83333C15.5448 5.83333 16.6665 6.955 16.6665 8.33333ZM9.1665 5.83333C9.1665 4.91417 8.419 4.16667 7.49984 4.16667C6.58067 4.16667 5.83317 4.91417 5.83317 5.83333C5.83317 6.7525 6.58067 7.5 7.49984 7.5C8.419 7.5 9.1665 6.7525 9.1665 5.83333ZM10.8332 5.83333C10.8332 7.67167 9.33817 9.16667 7.49984 9.16667C5.6615 9.16667 4.1665 7.67167 4.1665 5.83333C4.1665 3.995 5.6615 2.5 7.49984 2.5C9.33817 2.5 10.8332 3.995 10.8332 5.83333ZM11.6165 12.5383C12.3407 11.9783 13.2323 11.6667 14.1665 11.6667C16.464 11.6667 18.3332 13.5358 18.3332 15.8333C18.3332 16.2933 17.9607 16.6667 17.4998 16.6667C17.039 16.6667 16.6665 16.2933 16.6665 15.8333C16.6665 14.455 15.5448 13.3333 14.1665 13.3333C13.5973 13.3333 13.0565 13.5283 12.6198 13.8742C13.0732 14.7042 13.3332 15.6558 13.3332 16.6667C13.3332 17.1267 12.9607 17.5 12.4998 17.5C12.039 17.5 11.6665 17.1267 11.6665 16.6667C11.6665 14.3692 9.79734 12.5 7.49984 12.5C5.20234 12.5 3.33317 14.3692 3.33317 16.6667C3.33317 17.1267 2.96067 17.5 2.49984 17.5C2.039 17.5 1.6665 17.1267 1.6665 16.6667C1.6665 13.45 4.284 10.8333 7.49984 10.8333C9.10567 10.8333 10.5607 11.4858 11.6165 12.5383Z" fill="#0BAB7C"/>
</svg>