<svg width="20" height="20" viewBox="0 0 20 20" fill="none" xmlns="http://www.w3.org/2000/svg">
<path fill-rule="evenodd" clip-rule="evenodd" d="M10.0002 9.16621C9.311 9.16621 8.75016 8.60538 8.75016 7.91621C8.75016 7.22704 9.311 6.66621 10.0002 6.66621C10.6893 6.66621 11.2502 7.22704 11.2502 7.91621C11.2502 8.60538 10.6893 9.16621 10.0002 9.16621M10.0002 4.99954C8.39183 4.99954 7.0835 6.30788 7.0835 7.91621C7.0835 9.52454 8.39183 10.8329 10.0002 10.8329C11.6085 10.8329 12.9168 9.52454 12.9168 7.91621C12.9168 6.30788 11.6085 4.99954 10.0002 4.99954M10.0002 16.3716C8.60433 15.0516 5.00016 11.3458 5.00016 8.26829C5.00016 5.54746 7.24266 3.33329 10.0002 3.33329C12.7577 3.33329 15.0002 5.54746 15.0002 8.26829C15.0002 11.3458 11.396 15.0516 10.0002 16.3716M10.0002 1.66663C6.32433 1.66663 3.3335 4.62746 3.3335 8.26829C3.3335 12.8308 9.20766 17.9175 9.45766 18.1316C9.61433 18.2658 9.80683 18.3333 10.0002 18.3333C10.1935 18.3333 10.386 18.2658 10.5427 18.1316C10.7927 17.9175 16.6668 12.8308 16.6668 8.26829C16.6668 4.62746 13.676 1.66663 10.0002 1.66663" fill="#0BAB7C"/>
</svg>