<svg width="20" height="20" viewBox="0 0 20 20" fill="none" xmlns="http://www.w3.org/2000/svg">
<path fill-rule="evenodd" clip-rule="evenodd" d="M15.8335 9.16671H10.8335V4.16671C10.8335 3.70587 10.4602 3.33337 10.0002 3.33337C9.54016 3.33337 9.16683 3.70587 9.16683 4.16671V9.16671H4.16683C3.70683 9.16671 3.3335 9.53921 3.3335 10C3.3335 10.4609 3.70683 10.8334 4.16683 10.8334H9.16683V15.8334C9.16683 16.2942 9.54016 16.6667 10.0002 16.6667C10.4602 16.6667 10.8335 16.2942 10.8335 15.8334V10.8334H15.8335C16.2935 10.8334 16.6668 10.4609 16.6668 10C16.6668 9.53921 16.2935 9.16671 15.8335 9.16671" fill="#0BAB7C"/>
</svg>