<svg width="20" height="20" viewBox="0 0 20 20" fill="none" xmlns="http://www.w3.org/2000/svg">
<path d="M14.0166 1.66663H5.98327C4.20827 1.66663 2.7666 3.11663 2.7666 4.88329V16.625C2.7666 18.125 3.8416 18.7583 5.15827 18.0333L9.22493 15.775C9.65827 15.5333 10.3583 15.5333 10.7833 15.775L14.8499 18.0333C16.1666 18.7666 17.2416 18.1333 17.2416 16.625V4.88329C17.2333 3.11663 15.7916 1.66663 14.0166 1.66663ZM12.5083 8.12496C11.6999 8.41663 10.8499 8.56663 9.99993 8.56663C9.14994 8.56663 8.29993 8.41663 7.4916 8.12496C7.1666 8.00829 6.99994 7.64996 7.1166 7.32496C7.2416 6.99996 7.59994 6.83329 7.92494 6.94996C9.2666 7.43329 10.7416 7.43329 12.0833 6.94996C12.4083 6.83329 12.7666 6.99996 12.8833 7.32496C12.9999 7.64996 12.8333 8.00829 12.5083 8.12496Z" fill="#0BAB7C"/>
</svg>
