<svg width="20" height="20" viewBox="0 0 20 20" fill="none" xmlns="http://www.w3.org/2000/svg">
<path fill-rule="evenodd" clip-rule="evenodd" d="M6.54765 0.873047H14.2857C16.039 0.873047 17.4603 2.29436 17.4603 4.04765V16.8433C17.4603 17.7199 16.7497 18.4306 15.873 18.4306C15.5126 18.4306 15.1629 18.3079 14.8814 18.0827L10.4167 14.5105L5.95201 18.0827C5.2675 18.6304 4.26862 18.5195 3.72094 17.835C3.49574 17.5535 3.37305 17.2038 3.37305 16.8433V4.04765C3.37305 2.29436 4.79437 0.873047 6.54765 0.873047ZM6.54765 2.46035C5.67101 2.46035 4.96035 3.17101 4.96035 4.04765V16.8433L9.42504 13.2711C10.0048 12.8072 10.8286 12.8072 11.4084 13.2711L15.873 16.8433V4.04765C15.873 3.17101 15.1624 2.46035 14.2857 2.46035H6.54765Z" fill="#0BAB7C"/>
</svg>