<svg width="20" height="20" viewBox="0 0 20 20" fill="none" xmlns="http://www.w3.org/2000/svg">
<path fill-rule="evenodd" clip-rule="evenodd" d="M9.99984 4.99996C10.4598 4.99996 10.8332 4.62746 10.8332 4.16663V2.49996C10.8332 2.03913 10.4598 1.66663 9.99984 1.66663C9.53984 1.66663 9.1665 2.03913 9.1665 2.49996V4.16663C9.1665 4.62746 9.53984 4.99996 9.99984 4.99996ZM9.99984 11.6666C9.08067 11.6666 8.33317 10.9191 8.33317 9.99996C8.33317 9.08079 9.08067 8.33329 9.99984 8.33329C10.919 8.33329 11.6665 9.08079 11.6665 9.99996C11.6665 10.9191 10.919 11.6666 9.99984 11.6666ZM9.99984 6.66663C8.1615 6.66663 6.6665 8.16163 6.6665 9.99996C6.6665 11.8383 8.1615 13.3333 9.99984 13.3333C11.8382 13.3333 13.3332 11.8383 13.3332 9.99996C13.3332 8.16163 11.8382 6.66663 9.99984 6.66663ZM15.8332 9.16663H17.4998C17.9598 9.16663 18.3332 9.53913 18.3332 9.99996C18.3332 10.4608 17.9598 10.8333 17.4998 10.8333H15.8332C15.3732 10.8333 14.9998 10.4608 14.9998 9.99996C14.9998 9.53913 15.3732 9.16663 15.8332 9.16663ZM4.99984 9.99996C4.99984 9.53913 4.6265 9.16663 4.1665 9.16663H2.49984C2.03984 9.16663 1.6665 9.53913 1.6665 9.99996C1.6665 10.4608 2.03984 10.8333 2.49984 10.8333H4.1665C4.6265 10.8333 4.99984 10.4608 4.99984 9.99996ZM4.00542 4.21104C4.32542 3.88104 4.85292 3.87104 5.18375 4.19021L6.38292 5.34854C6.71375 5.66771 6.72292 6.19604 6.40292 6.52688C6.23959 6.69604 6.02209 6.78104 5.80375 6.78104C5.59542 6.78104 5.38709 6.70438 5.22459 6.54771L4.02542 5.38938C3.69459 5.07021 3.68542 4.54188 4.00542 4.21104ZM14.1958 6.78138C14.4042 6.78138 14.6125 6.70388 14.775 6.54804L15.9742 5.38971C16.305 5.06971 16.3142 4.54138 15.9942 4.21138C15.675 3.88138 15.1483 3.87138 14.8158 4.19054L13.6167 5.34804C13.2858 5.66804 13.2767 6.19638 13.5967 6.52638C13.76 6.69554 13.9775 6.78138 14.1958 6.78138ZM9.1665 15.8333C9.1665 15.3725 9.53984 15 9.99984 15C10.4598 15 10.8332 15.3725 10.8332 15.8333V17.5C10.8332 17.9608 10.4598 18.3333 9.99984 18.3333C9.53984 18.3333 9.1665 17.9608 9.1665 17.5V15.8333ZM14.7748 13.4521C14.444 13.133 13.9165 13.143 13.5965 13.473C13.2765 13.8038 13.2857 14.3321 13.6165 14.6513L14.8157 15.8096C14.9782 15.9663 15.1865 16.043 15.3948 16.043C15.6132 16.043 15.8307 15.958 15.994 15.7888C16.314 15.458 16.3048 14.9296 15.974 14.6105L14.7748 13.4521ZM4.02567 14.6105L5.22484 13.4521C5.5565 13.133 6.084 13.143 6.40317 13.473C6.72317 13.8038 6.714 14.3321 6.38317 14.6513L5.184 15.8096C5.0215 15.9663 4.81317 16.043 4.60484 16.043C4.3865 16.043 4.169 15.958 4.00567 15.7888C3.68567 15.458 3.69484 14.9296 4.02567 14.6105Z" fill="#0BAB7C"/>
</svg>