<svg width="48" height="48" viewBox="0 0 48 48" fill="none" xmlns="http://www.w3.org/2000/svg">
<path d="M24.0127 44.4975L32.2927 19.0144H15.7327L24.0127 44.4975Z" fill="#E24329"/>
<path d="M24.0129 44.4975L15.7329 19.0144H4.12866L24.0129 44.4975Z" fill="#FC6D26"/>
<path d="M4.12849 19.0144L1.61235 26.7585C1.38285 27.4648 1.63421 28.2386 2.23506 28.6751L24.0127 44.4975L4.12849 19.0144Z" fill="#FCA326"/>
<path d="M4.12891 19.0144H15.7331L10.746 3.66623C10.4895 2.87638 9.37226 2.87659 9.11576 3.66623L4.12891 19.0144Z" fill="#E24329"/>
<path d="M24.0142 44.4975L32.2942 19.0144H43.8984L24.0142 44.4975Z" fill="#FC6D26"/>
<path d="M43.8984 19.0144L46.4145 26.7585C46.644 27.4648 46.3927 28.2386 45.7918 28.6751L24.0142 44.4975L43.8984 19.0144Z" fill="#FCA326"/>
<path d="M43.8977 19.0144H32.2935L37.2805 3.66623C37.537 2.87638 38.6543 2.87659 38.9108 3.66623L43.8977 19.0144Z" fill="#E24329"/>
</svg>
