<svg width="48" height="48" viewBox="0 0 48 48" fill="none" xmlns="http://www.w3.org/2000/svg">
<circle cx="24" cy="24" r="21" fill="#FF3366"/>
<path d="M17.0391 16.2891C18.4888 16.2891 19.6641 15.1138 19.6641 13.6641C19.6641 12.2143 18.4888 11.0391 17.0391 11.0391C15.5893 11.0391 14.4141 12.2143 14.4141 13.6641C14.4141 15.1138 15.5893 16.2891 17.0391 16.2891Z" fill="white"/>
<path d="M11.5547 18.5391L10.6406 21.8906H13.6406C13.0391 24.3359 11.7797 29.4797 11.5547 30.4922C11.2734 31.7578 11.2265 35.3672 15.0234 35.3672C17.6736 35.3672 19.3639 33.6552 20.3068 32.2572L19.5938 35.1094H23.8594L26.0859 26.0971C26.4023 24.5977 27.1471 21.7031 29.8359 21.7031C33.0338 21.7031 31.8606 25.4899 31.2857 27.3457C31.2623 27.4213 31.2398 27.4937 31.2188 27.5625C30.7875 28.9688 30.3281 30.6094 30.3281 31.7344C30.3281 33 30.9141 35.3672 34.1953 35.3672C37.4766 35.3672 38.875 32.1172 39.1641 30.4922L37.5 29.8125C37.3828 30.6797 36.3281 32.5547 35.3438 32.5547C33.9962 32.5547 34.6731 30.2827 35.3955 27.8581C35.7159 26.7826 36.0453 25.6772 36.2109 24.7266C36.6297 22.3231 36.2109 18.2344 32.0391 18.2344C29.448 18.2344 27.4133 20.5432 26.4454 22.1461L27.2578 18.5391H20.7656L19.875 21.8906H22.8984C22.8984 21.8906 21.1043 29.2024 20.9883 29.4316C19.7695 31.8398 17.9262 32.6482 16.5469 32.5547C15.4406 32.4797 15.5703 31.1484 15.7734 30.4922L18.7734 18.5391H11.5547Z" fill="white"/>
</svg>
