<svg width="20" height="20" viewBox="0 0 20 20" fill="none" xmlns="http://www.w3.org/2000/svg">
<g clip-path="url(#clip0_3180_3520)">
<rect width="20" height="20" fill="#0BAB7C"/>
<path d="M10 10C11.933 10 13.5 8.433 13.5 6.5C13.5 4.567 11.933 3 10 3C8.067 3 6.5 4.567 6.5 6.5C6.5 8.433 8.067 10 10 10Z" fill="url(#paint0_linear_3180_3520)"/>
<path fill-rule="evenodd" clip-rule="evenodd" d="M9.72135 16.9148C7.587 15.4594 5.81192 13.476 4.54626 11.1323C4.49733 11.0384 4.4867 10.9271 4.51684 10.8245C4.54698 10.7219 4.61525 10.6371 4.70563 10.5899L7.18052 9.29164C7.35364 9.2014 7.56257 9.26985 7.65864 9.44829C8.9099 11.69 10.7601 13.4802 12.9711 14.5885C12.1557 15.4667 11.2527 16.2468 10.2782 16.9148C10.1079 17.0285 9.89174 17.0285 9.72135 16.9148Z" fill="white"/>
<path fill-rule="evenodd" clip-rule="evenodd" d="M10.2783 16.9148C12.413 15.4598 14.1881 13.4763 15.4534 11.1323C15.5025 11.0386 15.5134 10.9275 15.4836 10.8249C15.4538 10.7224 15.386 10.6374 15.2959 10.5899L12.8192 9.29164C12.6461 9.2014 12.4371 9.26985 12.3411 9.44829C11.0901 11.6902 9.23979 13.4805 7.02856 14.5885C7.84351 15.4673 8.74659 16.2474 9.72145 16.9148C9.89184 17.0285 10.108 17.0285 10.2783 16.9148Z" fill="url(#paint1_linear_3180_3520)"/>
</g>
<defs>
<linearGradient id="paint0_linear_3180_3520" x1="10" y1="3" x2="10" y2="10" gradientUnits="userSpaceOnUse">
<stop stop-color="white"/>
<stop offset="1" stop-color="#FBFCFF"/>
</linearGradient>
<linearGradient id="paint1_linear_3180_3520" x1="11.2643" y1="9.25195" x2="11.2643" y2="17.0001" gradientUnits="userSpaceOnUse">
<stop stop-color="white"/>
<stop offset="1" stop-color="white" stop-opacity="0.62"/>
</linearGradient>
<clipPath id="clip0_3180_3520">
<rect width="20" height="20" rx="4" fill="white"/>
</clipPath>
</defs>
</svg>
